<mxfile host="app.diagrams.net" modified="2022-08-08T09:35:39.659Z" agent="5.0 (Macintosh; Intel Mac OS X 10_15_7) AppleWebKit/537.36 (KHTML, like Gecko) Chrome/103.0.0.0 Safari/537.36" etag="0os6xZW1Ff1Tklm1NPrG" version="20.1.1" type="github">
  <diagram id="tFTRGcVF1fEIXkfs0HWW" name="Page-1">
    <mxGraphModel dx="1678" dy="942" grid="1" gridSize="10" guides="1" tooltips="1" connect="1" arrows="1" fold="1" page="1" pageScale="1" pageWidth="827" pageHeight="1169" math="0" shadow="0">
      <root>
        <mxCell id="0" />
        <mxCell id="1" parent="0" />
        <mxCell id="cFGMZwlh538WXo4uqq2s-16" value="" style="rounded=0;whiteSpace=wrap;html=1;fillColor=#dae8fc;strokeColor=#6c8ebf;verticalAlign=middle;" vertex="1" parent="1">
          <mxGeometry x="280" y="640" width="280" height="220" as="geometry" />
        </mxCell>
        <mxCell id="cFGMZwlh538WXo4uqq2s-1" value="" style="rounded=0;whiteSpace=wrap;html=1;fillColor=#dae8fc;strokeColor=#6c8ebf;" vertex="1" parent="1">
          <mxGeometry x="280" y="200" width="280" height="280" as="geometry" />
        </mxCell>
        <mxCell id="cFGMZwlh538WXo4uqq2s-2" value="GItLab" style="text;html=1;align=center;verticalAlign=middle;resizable=0;points=[];autosize=1;strokeColor=none;fillColor=none;fontSize=16;" vertex="1" parent="1">
          <mxGeometry x="280" y="200" width="70" height="30" as="geometry" />
        </mxCell>
        <mxCell id="cFGMZwlh538WXo4uqq2s-9" style="edgeStyle=orthogonalEdgeStyle;rounded=0;orthogonalLoop=1;jettySize=auto;html=1;fontSize=16;" edge="1" parent="1" source="cFGMZwlh538WXo4uqq2s-4" target="cFGMZwlh538WXo4uqq2s-8">
          <mxGeometry relative="1" as="geometry" />
        </mxCell>
        <mxCell id="cFGMZwlh538WXo4uqq2s-4" value="合并代码" style="whiteSpace=wrap;html=1;fontSize=12;verticalAlign=top;" vertex="1" parent="1">
          <mxGeometry x="360" y="230" width="120" height="30" as="geometry" />
        </mxCell>
        <mxCell id="cFGMZwlh538WXo4uqq2s-11" value="" style="edgeStyle=orthogonalEdgeStyle;rounded=0;orthogonalLoop=1;jettySize=auto;html=1;fontSize=16;" edge="1" parent="1" source="cFGMZwlh538WXo4uqq2s-8" target="cFGMZwlh538WXo4uqq2s-10">
          <mxGeometry relative="1" as="geometry" />
        </mxCell>
        <mxCell id="cFGMZwlh538WXo4uqq2s-8" value="stage1&lt;br style=&quot;font-size: 12px;&quot;&gt;代码构建" style="triangle;whiteSpace=wrap;html=1;fontSize=12;rotation=90;horizontal=0;" vertex="1" parent="1">
          <mxGeometry x="387" y="270" width="66" height="120" as="geometry" />
        </mxCell>
        <mxCell id="cFGMZwlh538WXo4uqq2s-14" value="" style="edgeStyle=orthogonalEdgeStyle;rounded=0;orthogonalLoop=1;jettySize=auto;html=1;fontSize=12;" edge="1" parent="1" source="cFGMZwlh538WXo4uqq2s-10" target="cFGMZwlh538WXo4uqq2s-13">
          <mxGeometry relative="1" as="geometry" />
        </mxCell>
        <mxCell id="cFGMZwlh538WXo4uqq2s-10" value="stage2&lt;br style=&quot;font-size: 12px;&quot;&gt;推送镜像" style="triangle;whiteSpace=wrap;html=1;fontSize=12;rotation=90;horizontal=0;" vertex="1" parent="1">
          <mxGeometry x="387" y="370" width="66" height="120" as="geometry" />
        </mxCell>
        <mxCell id="cFGMZwlh538WXo4uqq2s-26" style="edgeStyle=orthogonalEdgeStyle;rounded=0;orthogonalLoop=1;jettySize=auto;html=1;entryX=0;entryY=0.5;entryDx=0;entryDy=0;fontSize=16;" edge="1" parent="1" source="cFGMZwlh538WXo4uqq2s-13" target="cFGMZwlh538WXo4uqq2s-21">
          <mxGeometry relative="1" as="geometry" />
        </mxCell>
        <mxCell id="cFGMZwlh538WXo4uqq2s-13" value="镜像仓库&lt;br&gt;(https://registry.gz.cvte.cn/)" style="whiteSpace=wrap;html=1;fillColor=#647687;strokeColor=#314354;fontColor=#ffffff;fontSize=14;" vertex="1" parent="1">
          <mxGeometry x="280" y="520" width="280" height="80" as="geometry" />
        </mxCell>
        <mxCell id="cFGMZwlh538WXo4uqq2s-15" value="&lt;span style=&quot;color: rgb(255, 255, 255); font-size: 16px;&quot;&gt;Harbor&lt;/span&gt;" style="text;html=1;align=center;verticalAlign=middle;resizable=0;points=[];autosize=1;strokeColor=none;fillColor=none;fontSize=16;" vertex="1" parent="1">
          <mxGeometry x="280" y="520" width="70" height="30" as="geometry" />
        </mxCell>
        <mxCell id="cFGMZwlh538WXo4uqq2s-18" value="鲸云" style="text;html=1;align=center;verticalAlign=middle;resizable=0;points=[];autosize=1;strokeColor=none;fillColor=none;fontSize=16;" vertex="1" parent="1">
          <mxGeometry x="285" y="640" width="60" height="30" as="geometry" />
        </mxCell>
        <mxCell id="cFGMZwlh538WXo4uqq2s-23" value="" style="edgeStyle=orthogonalEdgeStyle;rounded=0;orthogonalLoop=1;jettySize=auto;html=1;fontSize=16;" edge="1" parent="1" source="cFGMZwlh538WXo4uqq2s-21" target="cFGMZwlh538WXo4uqq2s-22">
          <mxGeometry relative="1" as="geometry" />
        </mxCell>
        <mxCell id="cFGMZwlh538WXo4uqq2s-21" value="&lt;span style=&quot;background-color: rgb(248, 249, 250);&quot;&gt;部署镜像&lt;/span&gt;" style="triangle;whiteSpace=wrap;html=1;fontSize=12;rotation=90;horizontal=0;" vertex="1" parent="1">
          <mxGeometry x="387" y="640" width="66" height="120" as="geometry" />
        </mxCell>
        <mxCell id="cFGMZwlh538WXo4uqq2s-25" value="" style="edgeStyle=orthogonalEdgeStyle;rounded=0;orthogonalLoop=1;jettySize=auto;html=1;fontSize=16;" edge="1" parent="1" source="cFGMZwlh538WXo4uqq2s-22" target="cFGMZwlh538WXo4uqq2s-24">
          <mxGeometry relative="1" as="geometry" />
        </mxCell>
        <mxCell id="cFGMZwlh538WXo4uqq2s-22" value="&lt;span style=&quot;background-color: rgb(248, 249, 250);&quot;&gt;切换流量&lt;/span&gt;" style="triangle;whiteSpace=wrap;html=1;fontSize=12;rotation=90;horizontal=0;" vertex="1" parent="1">
          <mxGeometry x="387" y="740" width="66" height="120" as="geometry" />
        </mxCell>
        <mxCell id="cFGMZwlh538WXo4uqq2s-24" value="结束" style="whiteSpace=wrap;html=1;" vertex="1" parent="1">
          <mxGeometry x="360" y="900" width="120" height="40" as="geometry" />
        </mxCell>
        <mxCell id="cFGMZwlh538WXo4uqq2s-29" style="edgeStyle=orthogonalEdgeStyle;rounded=0;orthogonalLoop=1;jettySize=auto;html=1;entryX=0.5;entryY=0;entryDx=0;entryDy=0;fontSize=16;" edge="1" parent="1" source="cFGMZwlh538WXo4uqq2s-27" target="cFGMZwlh538WXo4uqq2s-4">
          <mxGeometry relative="1" as="geometry" />
        </mxCell>
        <mxCell id="cFGMZwlh538WXo4uqq2s-27" value="Actor" style="shape=umlActor;verticalLabelPosition=bottom;verticalAlign=top;html=1;outlineConnect=0;fontSize=16;" vertex="1" parent="1">
          <mxGeometry x="405" y="110" width="30" height="50" as="geometry" />
        </mxCell>
      </root>
    </mxGraphModel>
  </diagram>
</mxfile>
